<?xml version="1.0" encoding="utf-8"?>
<!-- Generator: Adobe Illustrator 26.5.2, SVG Export Plug-In . SVG Version: 6.00 Build 0)  -->
<svg version="1.1" id="Calque_1" xmlns="http://www.w3.org/2000/svg" xmlns:xlink="http://www.w3.org/1999/xlink" x="0px" y="0px"
	 viewBox="0 0 1521.65 462.89" style="enable-background:new 0 0 1521.65 462.89;" xml:space="preserve">
<style type="text/css">
	.st0{fill:#000111;}
	.st1{fill:#994544;}
	.st2{fill:#A05C5B;}
	.st3{fill:#D89E59;}
	.st4{fill:#AB9898;}
	.st5{fill:#FFFFFF;}
	.st6{fill:#B3B3B3;}
	.st7{font-family:'MyriadPro-Regular';}
	.st8{font-size:25px;}
	.st9{fill:#6D6D6D;}
</style>
<g>
	<g>
		<rect x="94.85" y="85.57" class="st0" width="183.51" height="292.78"/>
	</g>
	<g>
		<rect x="324.74" y="85.57" class="st1" width="183.51" height="292.78"/>
	</g>
	<g>
		<rect x="554.64" y="85.57" class="st2" width="183.51" height="292.78"/>
	</g>
	<g>
		<rect x="784.54" y="85.57" class="st3" width="183.51" height="292.78"/>
	</g>
	<g>
		<rect x="1014.43" y="85.57" class="st4" width="183.51" height="292.78"/>
	</g>
	<g>
		<rect x="1244.83" y="86.07" class="st5" width="182.5" height="291.78"/>
		<path class="st6" d="M1426.84,86.57v290.78h-181.51V86.57H1426.84 M1427.84,85.57h-183.51v292.78h183.51V85.57L1427.84,85.57z"/>
	</g>
</g>
<text transform="matrix(1 0 0 1 107.5737 366.6702)" class="st5 st7 st8">#000111</text>
<text transform="matrix(1 0 0 1 335.1669 366.6702)" class="st5 st7 st8">#994544</text>
<text transform="matrix(1 0 0 1 565.811 366.6702)" class="st5 st7 st8">#a05c5b</text>
<text transform="matrix(1 0 0 1 797.6754 366.6702)" class="st5 st7 st8">#d89e59</text>
<text transform="matrix(1 0 0 1 1025.2686 366.6702)" class="st5 st7 st8">#ab9898</text>
<text transform="matrix(1 0 0 1 1258.9635 366.6702)" class="st9 st7 st8">#ffffff</text>
</svg>
